<svg width="166" height="94" viewBox="0 0 166 94" fill="none" xmlns="http://www.w3.org/2000/svg">
<path d="M83.6636 32.3716L83.7123 32.3758C84.4192 32.4378 85.0511 32.5732 85.6079 32.7821C86.1679 32.9913 86.6528 33.238 87.0625 33.5222C87.4722 33.8065 87.8062 34.0972 88.0644 34.3943C88.3259 34.6917 88.5098 34.961 88.6161 35.2023L88.0061 35.34C87.8769 35.1359 87.6929 34.9238 87.4541 34.7035C87.2149 34.4865 86.9161 34.279 86.5577 34.0809C86.199 33.8861 85.7776 33.7168 85.2935 33.5731C84.8094 33.4294 84.2593 33.3306 83.6432 33.2766L83.5751 33.2706C82.9589 33.2166 82.3984 33.2182 81.8934 33.2752C81.3917 33.3326 80.9457 33.4258 80.5553 33.555C80.1647 33.6874 79.8295 33.8394 79.5498 34.011C79.2665 34.1855 79.0387 34.3616 78.8663 34.5393L78.3381 34.3018C78.4848 34.0827 78.7127 33.8494 79.0219 33.602C79.3279 33.3543 79.7073 33.1262 80.1602 32.9175C80.6099 32.7086 81.1286 32.5498 81.7165 32.4412C82.3044 32.3326 82.9535 32.3094 83.6636 32.3716Z" fill="white" fill-opacity="0.5"/>
<path d="M78.1172 32.9297V34.0078C78.1172 35.2891 77.957 36.4375 77.6367 37.4531C77.3164 38.4688 76.8555 39.332 76.2539 40.043C75.6523 40.7539 74.9297 41.2969 74.0859 41.6719C73.25 42.0469 72.3125 42.2344 71.2734 42.2344C70.2656 42.2344 69.3398 42.0469 68.4961 41.6719C67.6602 41.2969 66.9336 40.7539 66.3164 40.043C65.707 39.332 65.2344 38.4688 64.8984 37.4531C64.5625 36.4375 64.3945 35.2891 64.3945 34.0078V32.9297C64.3945 31.6484 64.5586 30.5039 64.8867 29.4961C65.2227 28.4805 65.6953 27.6172 66.3047 26.9062C66.9141 26.1875 67.6367 25.6406 68.4727 25.2656C69.3164 24.8906 70.2422 24.7031 71.25 24.7031C72.2891 24.7031 73.2266 24.8906 74.0625 25.2656C74.9062 25.6406 75.6289 26.1875 76.2305 26.9062C76.8398 27.6172 77.3047 28.4805 77.625 29.4961C77.9531 30.5039 78.1172 31.6484 78.1172 32.9297ZM75.8789 34.0078V32.9062C75.8789 31.8906 75.7734 30.9922 75.5625 30.2109C75.3594 29.4297 75.0586 28.7734 74.6602 28.2422C74.2617 27.7109 73.7734 27.3086 73.1953 27.0352C72.625 26.7617 71.9766 26.625 71.25 26.625C70.5469 26.625 69.9102 26.7617 69.3398 27.0352C68.7773 27.3086 68.293 27.7109 67.8867 28.2422C67.4883 28.7734 67.1797 29.4297 66.9609 30.2109C66.7422 30.9922 66.6328 31.8906 66.6328 32.9062V34.0078C66.6328 35.0312 66.7422 35.9375 66.9609 36.7266C67.1797 37.5078 67.4922 38.168 67.8984 38.707C68.3125 39.2383 68.8008 39.6406 69.3633 39.9141C69.9336 40.1875 70.5703 40.3242 71.2734 40.3242C72.0078 40.3242 72.6602 40.1875 73.2305 39.9141C73.8008 39.6406 74.2812 39.2383 74.6719 38.707C75.0703 38.168 75.3711 37.5078 75.5742 36.7266C75.7773 35.9375 75.8789 35.0312 75.8789 34.0078Z" fill="#5896E8"/>
<path d="M101.594 32.9297V34.0078C101.594 35.2891 101.434 36.4375 101.113 37.4531C100.793 38.4688 100.332 39.332 99.7305 40.043C99.1289 40.7539 98.4062 41.2969 97.5625 41.6719C96.7266 42.0469 95.7891 42.2344 94.75 42.2344C93.7422 42.2344 92.8164 42.0469 91.9727 41.6719C91.1367 41.2969 90.4102 40.7539 89.793 40.043C89.1836 39.332 88.7109 38.4688 88.375 37.4531C88.0391 36.4375 87.8711 35.2891 87.8711 34.0078V32.9297C87.8711 31.6484 88.0352 30.5039 88.3633 29.4961C88.6992 28.4805 89.1719 27.6172 89.7812 26.9062C90.3906 26.1875 91.1133 25.6406 91.9492 25.2656C92.793 24.8906 93.7188 24.7031 94.7266 24.7031C95.7656 24.7031 96.7031 24.8906 97.5391 25.2656C98.3828 25.6406 99.1055 26.1875 99.707 26.9062C100.316 27.6172 100.781 28.4805 101.102 29.4961C101.43 30.5039 101.594 31.6484 101.594 32.9297ZM99.3555 34.0078V32.9062C99.3555 31.8906 99.25 30.9922 99.0391 30.2109C98.8359 29.4297 98.5352 28.7734 98.1367 28.2422C97.7383 27.7109 97.25 27.3086 96.6719 27.0352C96.1016 26.7617 95.4531 26.625 94.7266 26.625C94.0234 26.625 93.3867 26.7617 92.8164 27.0352C92.2539 27.3086 91.7695 27.7109 91.3633 28.2422C90.9648 28.7734 90.6562 29.4297 90.4375 30.2109C90.2188 30.9922 90.1094 31.8906 90.1094 32.9062V34.0078C90.1094 35.0312 90.2188 35.9375 90.4375 36.7266C90.6562 37.5078 90.9688 38.168 91.375 38.707C91.7891 39.2383 92.2773 39.6406 92.8398 39.9141C93.4102 40.1875 94.0469 40.3242 94.75 40.3242C95.4844 40.3242 96.1367 40.1875 96.707 39.9141C97.2773 39.6406 97.7578 39.2383 98.1484 38.707C98.5469 38.168 98.8477 37.5078 99.0508 36.7266C99.2539 35.9375 99.3555 35.0312 99.3555 34.0078Z" fill="#FB7A7A"/>
<path d="M42.3633 47.9375V65H40.1016V47.9375H42.3633ZM49.5117 55.6133V57.4648H41.8711V55.6133H49.5117ZM50.6719 47.9375V49.7891H41.8711V47.9375H50.6719ZM67.0039 55.9297V57.0078C67.0039 58.2891 66.8438 59.4375 66.5234 60.4531C66.2031 61.4688 65.7422 62.332 65.1406 63.043C64.5391 63.7539 63.8164 64.2969 62.9727 64.6719C62.1367 65.0469 61.1992 65.2344 60.1602 65.2344C59.1523 65.2344 58.2266 65.0469 57.3828 64.6719C56.5469 64.2969 55.8203 63.7539 55.2031 63.043C54.5938 62.332 54.1211 61.4688 53.7852 60.4531C53.4492 59.4375 53.2812 58.2891 53.2812 57.0078V55.9297C53.2812 54.6484 53.4453 53.5039 53.7734 52.4961C54.1094 51.4805 54.582 50.6172 55.1914 49.9062C55.8008 49.1875 56.5234 48.6406 57.3594 48.2656C58.2031 47.8906 59.1289 47.7031 60.1367 47.7031C61.1758 47.7031 62.1133 47.8906 62.9492 48.2656C63.793 48.6406 64.5156 49.1875 65.1172 49.9062C65.7266 50.6172 66.1914 51.4805 66.5117 52.4961C66.8398 53.5039 67.0039 54.6484 67.0039 55.9297ZM64.7656 57.0078V55.9062C64.7656 54.8906 64.6602 53.9922 64.4492 53.2109C64.2461 52.4297 63.9453 51.7734 63.5469 51.2422C63.1484 50.7109 62.6602 50.3086 62.082 50.0352C61.5117 49.7617 60.8633 49.625 60.1367 49.625C59.4336 49.625 58.7969 49.7617 58.2266 50.0352C57.6641 50.3086 57.1797 50.7109 56.7734 51.2422C56.375 51.7734 56.0664 52.4297 55.8477 53.2109C55.6289 53.9922 55.5195 54.8906 55.5195 55.9062V57.0078C55.5195 58.0312 55.6289 58.9375 55.8477 59.7266C56.0664 60.5078 56.3789 61.168 56.7852 61.707C57.1992 62.2383 57.6875 62.6406 58.25 62.9141C58.8203 63.1875 59.457 63.3242 60.1602 63.3242C60.8945 63.3242 61.5469 63.1875 62.1172 62.9141C62.6875 62.6406 63.168 62.2383 63.5586 61.707C63.957 61.168 64.2578 60.5078 64.4609 59.7266C64.6641 58.9375 64.7656 58.0312 64.7656 57.0078ZM81.2383 63.1602V65H72.707V63.1602H81.2383ZM73.1523 47.9375V65H70.8906V47.9375H73.1523ZM96.6914 55.9297V57.0078C96.6914 58.2891 96.5312 59.4375 96.2109 60.4531C95.8906 61.4688 95.4297 62.332 94.8281 63.043C94.2266 63.7539 93.5039 64.2969 92.6602 64.6719C91.8242 65.0469 90.8867 65.2344 89.8477 65.2344C88.8398 65.2344 87.9141 65.0469 87.0703 64.6719C86.2344 64.2969 85.5078 63.7539 84.8906 63.043C84.2812 62.332 83.8086 61.4688 83.4727 60.4531C83.1367 59.4375 82.9688 58.2891 82.9688 57.0078V55.9297C82.9688 54.6484 83.1328 53.5039 83.4609 52.4961C83.7969 51.4805 84.2695 50.6172 84.8789 49.9062C85.4883 49.1875 86.2109 48.6406 87.0469 48.2656C87.8906 47.8906 88.8164 47.7031 89.8242 47.7031C90.8633 47.7031 91.8008 47.8906 92.6367 48.2656C93.4805 48.6406 94.2031 49.1875 94.8047 49.9062C95.4141 50.6172 95.8789 51.4805 96.1992 52.4961C96.5273 53.5039 96.6914 54.6484 96.6914 55.9297ZM94.4531 57.0078V55.9062C94.4531 54.8906 94.3477 53.9922 94.1367 53.2109C93.9336 52.4297 93.6328 51.7734 93.2344 51.2422C92.8359 50.7109 92.3477 50.3086 91.7695 50.0352C91.1992 49.7617 90.5508 49.625 89.8242 49.625C89.1211 49.625 88.4844 49.7617 87.9141 50.0352C87.3516 50.3086 86.8672 50.7109 86.4609 51.2422C86.0625 51.7734 85.7539 52.4297 85.5352 53.2109C85.3164 53.9922 85.207 54.8906 85.207 55.9062V57.0078C85.207 58.0312 85.3164 58.9375 85.5352 59.7266C85.7539 60.5078 86.0664 61.168 86.4727 61.707C86.8867 62.2383 87.375 62.6406 87.9375 62.9141C88.5078 63.1875 89.1445 63.3242 89.8477 63.3242C90.582 63.3242 91.2344 63.1875 91.8047 62.9141C92.375 62.6406 92.8555 62.2383 93.2461 61.707C93.6445 61.168 93.9453 60.5078 94.1484 59.7266C94.3516 58.9375 94.4531 58.0312 94.4531 57.0078ZM106.871 58.3086H102.312V56.4688H106.871C107.754 56.4688 108.469 56.3281 109.016 56.0469C109.562 55.7656 109.961 55.375 110.211 54.875C110.469 54.375 110.598 53.8047 110.598 53.1641C110.598 52.5781 110.469 52.0273 110.211 51.5117C109.961 50.9961 109.562 50.582 109.016 50.2695C108.469 49.9492 107.754 49.7891 106.871 49.7891H102.84V65H100.578V47.9375H106.871C108.16 47.9375 109.25 48.1602 110.141 48.6055C111.031 49.0508 111.707 49.668 112.168 50.457C112.629 51.2383 112.859 52.1328 112.859 53.1406C112.859 54.2344 112.629 55.168 112.168 55.9414C111.707 56.7148 111.031 57.3047 110.141 57.7109C109.25 58.1094 108.16 58.3086 106.871 58.3086ZM127.059 63.1602V65H118.023V63.1602H127.059ZM118.48 47.9375V65H116.219V47.9375H118.48ZM125.863 55.2734V57.1133H118.023V55.2734H125.863ZM126.941 47.9375V49.7891H118.023V47.9375H126.941Z" fill="white"/>
<path d="M85.0182 37.8656L84.7508 38.584L81.4194 37.3441L81.6868 36.6256L85.0182 37.8656ZM84.0732 30.746L81.5933 37.4088L80.7101 37.0801L83.19 30.4172L84.0732 30.746Z" fill="white"/>
<path d="M66.7133 35.0014L83.1689 36.688L82.3916 38.221L65.936 36.5344L66.7133 35.0014Z" fill="white" fill-opacity="0.13"/>
<path d="M66.8642 33.7142L83.1602 36.5549L82.277 38.0293L65.9809 35.1886L66.8642 33.7142Z" fill="white" fill-opacity="0.13"/>
<path d="M100.713 35.0014L117.169 36.688L116.392 38.221L99.936 36.5344L100.713 35.0014Z" fill="white" fill-opacity="0.44"/>
<path d="M100.88 33.6822L117.155 36.6451L116.26 38.1128L99.986 35.1499L100.88 33.6822Z" fill="white" fill-opacity="0.44"/>
<path d="M78.1172 32.9297V34.0078C78.1172 35.2891 77.957 36.4375 77.6367 37.4531C77.3164 38.4688 76.8555 39.332 76.2539 40.043C75.6523 40.7539 74.9297 41.2969 74.0859 41.6719C73.25 42.0469 72.3125 42.2344 71.2734 42.2344C70.2656 42.2344 69.3398 42.0469 68.4961 41.6719C67.6602 41.2969 66.9336 40.7539 66.3164 40.043C65.707 39.332 65.2344 38.4688 64.8984 37.4531C64.5625 36.4375 64.3945 35.2891 64.3945 34.0078V32.9297C64.3945 31.6484 64.5586 30.5039 64.8867 29.4961C65.2227 28.4805 65.6953 27.6172 66.3047 26.9062C66.9141 26.1875 67.6367 25.6406 68.4727 25.2656C69.3164 24.8906 70.2422 24.7031 71.25 24.7031C72.2891 24.7031 73.2266 24.8906 74.0625 25.2656C74.9062 25.6406 75.6289 26.1875 76.2305 26.9062C76.8398 27.6172 77.3047 28.4805 77.625 29.4961C77.9531 30.5039 78.1172 31.6484 78.1172 32.9297ZM75.8789 34.0078V32.9062C75.8789 31.8906 75.7734 30.9922 75.5625 30.2109C75.3594 29.4297 75.0586 28.7734 74.6602 28.2422C74.2617 27.7109 73.7734 27.3086 73.1953 27.0352C72.625 26.7617 71.9766 26.625 71.25 26.625C70.5469 26.625 69.9102 26.7617 69.3398 27.0352C68.7773 27.3086 68.293 27.7109 67.8867 28.2422C67.4883 28.7734 67.1797 29.4297 66.9609 30.2109C66.7422 30.9922 66.6328 31.8906 66.6328 32.9062V34.0078C66.6328 35.0312 66.7422 35.9375 66.9609 36.7266C67.1797 37.5078 67.4922 38.168 67.8984 38.707C68.3125 39.2383 68.8008 39.6406 69.3633 39.9141C69.9336 40.1875 70.5703 40.3242 71.2734 40.3242C72.0078 40.3242 72.6602 40.1875 73.2305 39.9141C73.8008 39.6406 74.2812 39.2383 74.6719 38.707C75.0703 38.168 75.3711 37.5078 75.5742 36.7266C75.7773 35.9375 75.8789 35.0312 75.8789 34.0078Z" fill="#5896E8"/>
<path d="M101.594 32.9297V34.0078C101.594 35.2891 101.434 36.4375 101.113 37.4531C100.793 38.4688 100.332 39.332 99.7305 40.043C99.1289 40.7539 98.4062 41.2969 97.5625 41.6719C96.7266 42.0469 95.7891 42.2344 94.75 42.2344C93.7422 42.2344 92.8164 42.0469 91.9727 41.6719C91.1367 41.2969 90.4102 40.7539 89.793 40.043C89.1836 39.332 88.7109 38.4688 88.375 37.4531C88.0391 36.4375 87.8711 35.2891 87.8711 34.0078V32.9297C87.8711 31.6484 88.0352 30.5039 88.3633 29.4961C88.6992 28.4805 89.1719 27.6172 89.7812 26.9062C90.3906 26.1875 91.1133 25.6406 91.9492 25.2656C92.793 24.8906 93.7188 24.7031 94.7266 24.7031C95.7656 24.7031 96.7031 24.8906 97.5391 25.2656C98.3828 25.6406 99.1055 26.1875 99.707 26.9062C100.316 27.6172 100.781 28.4805 101.102 29.4961C101.43 30.5039 101.594 31.6484 101.594 32.9297ZM99.3555 34.0078V32.9062C99.3555 31.8906 99.25 30.9922 99.0391 30.2109C98.8359 29.4297 98.5352 28.7734 98.1367 28.2422C97.7383 27.7109 97.25 27.3086 96.6719 27.0352C96.1016 26.7617 95.4531 26.625 94.7266 26.625C94.0234 26.625 93.3867 26.7617 92.8164 27.0352C92.2539 27.3086 91.7695 27.7109 91.3633 28.2422C90.9648 28.7734 90.6562 29.4297 90.4375 30.2109C90.2188 30.9922 90.1094 31.8906 90.1094 32.9062V34.0078C90.1094 35.0312 90.2188 35.9375 90.4375 36.7266C90.6562 37.5078 90.9688 38.168 91.375 38.707C91.7891 39.2383 92.2773 39.6406 92.8398 39.9141C93.4102 40.1875 94.0469 40.3242 94.75 40.3242C95.4844 40.3242 96.1367 40.1875 96.707 39.9141C97.2773 39.6406 97.7578 39.2383 98.1484 38.707C98.5469 38.168 98.8477 37.5078 99.0508 36.7266C99.2539 35.9375 99.3555 35.0312 99.3555 34.0078Z" fill="#FB7A7A"/>
<path d="M42.3633 47.9375V65H40.1016V47.9375H42.3633ZM49.5117 55.6133V57.4648H41.8711V55.6133H49.5117ZM50.6719 47.9375V49.7891H41.8711V47.9375H50.6719ZM67.0039 55.9297V57.0078C67.0039 58.2891 66.8438 59.4375 66.5234 60.4531C66.2031 61.4688 65.7422 62.332 65.1406 63.043C64.5391 63.7539 63.8164 64.2969 62.9727 64.6719C62.1367 65.0469 61.1992 65.2344 60.1602 65.2344C59.1523 65.2344 58.2266 65.0469 57.3828 64.6719C56.5469 64.2969 55.8203 63.7539 55.2031 63.043C54.5938 62.332 54.1211 61.4688 53.7852 60.4531C53.4492 59.4375 53.2812 58.2891 53.2812 57.0078V55.9297C53.2812 54.6484 53.4453 53.5039 53.7734 52.4961C54.1094 51.4805 54.582 50.6172 55.1914 49.9062C55.8008 49.1875 56.5234 48.6406 57.3594 48.2656C58.2031 47.8906 59.1289 47.7031 60.1367 47.7031C61.1758 47.7031 62.1133 47.8906 62.9492 48.2656C63.793 48.6406 64.5156 49.1875 65.1172 49.9062C65.7266 50.6172 66.1914 51.4805 66.5117 52.4961C66.8398 53.5039 67.0039 54.6484 67.0039 55.9297ZM64.7656 57.0078V55.9062C64.7656 54.8906 64.6602 53.9922 64.4492 53.2109C64.2461 52.4297 63.9453 51.7734 63.5469 51.2422C63.1484 50.7109 62.6602 50.3086 62.082 50.0352C61.5117 49.7617 60.8633 49.625 60.1367 49.625C59.4336 49.625 58.7969 49.7617 58.2266 50.0352C57.6641 50.3086 57.1797 50.7109 56.7734 51.2422C56.375 51.7734 56.0664 52.4297 55.8477 53.2109C55.6289 53.9922 55.5195 54.8906 55.5195 55.9062V57.0078C55.5195 58.0312 55.6289 58.9375 55.8477 59.7266C56.0664 60.5078 56.3789 61.168 56.7852 61.707C57.1992 62.2383 57.6875 62.6406 58.25 62.9141C58.8203 63.1875 59.457 63.3242 60.1602 63.3242C60.8945 63.3242 61.5469 63.1875 62.1172 62.9141C62.6875 62.6406 63.168 62.2383 63.5586 61.707C63.957 61.168 64.2578 60.5078 64.4609 59.7266C64.6641 58.9375 64.7656 58.0312 64.7656 57.0078ZM81.2383 63.1602V65H72.707V63.1602H81.2383ZM73.1523 47.9375V65H70.8906V47.9375H73.1523ZM96.6914 55.9297V57.0078C96.6914 58.2891 96.5312 59.4375 96.2109 60.4531C95.8906 61.4688 95.4297 62.332 94.8281 63.043C94.2266 63.7539 93.5039 64.2969 92.6602 64.6719C91.8242 65.0469 90.8867 65.2344 89.8477 65.2344C88.8398 65.2344 87.9141 65.0469 87.0703 64.6719C86.2344 64.2969 85.5078 63.7539 84.8906 63.043C84.2812 62.332 83.8086 61.4688 83.4727 60.4531C83.1367 59.4375 82.9688 58.2891 82.9688 57.0078V55.9297C82.9688 54.6484 83.1328 53.5039 83.4609 52.4961C83.7969 51.4805 84.2695 50.6172 84.8789 49.9062C85.4883 49.1875 86.2109 48.6406 87.0469 48.2656C87.8906 47.8906 88.8164 47.7031 89.8242 47.7031C90.8633 47.7031 91.8008 47.8906 92.6367 48.2656C93.4805 48.6406 94.2031 49.1875 94.8047 49.9062C95.4141 50.6172 95.8789 51.4805 96.1992 52.4961C96.5273 53.5039 96.6914 54.6484 96.6914 55.9297ZM94.4531 57.0078V55.9062C94.4531 54.8906 94.3477 53.9922 94.1367 53.2109C93.9336 52.4297 93.6328 51.7734 93.2344 51.2422C92.8359 50.7109 92.3477 50.3086 91.7695 50.0352C91.1992 49.7617 90.5508 49.625 89.8242 49.625C89.1211 49.625 88.4844 49.7617 87.9141 50.0352C87.3516 50.3086 86.8672 50.7109 86.4609 51.2422C86.0625 51.7734 85.7539 52.4297 85.5352 53.2109C85.3164 53.9922 85.207 54.8906 85.207 55.9062V57.0078C85.207 58.0312 85.3164 58.9375 85.5352 59.7266C85.7539 60.5078 86.0664 61.168 86.4727 61.707C86.8867 62.2383 87.375 62.6406 87.9375 62.9141C88.5078 63.1875 89.1445 63.3242 89.8477 63.3242C90.582 63.3242 91.2344 63.1875 91.8047 62.9141C92.375 62.6406 92.8555 62.2383 93.2461 61.707C93.6445 61.168 93.9453 60.5078 94.1484 59.7266C94.3516 58.9375 94.4531 58.0312 94.4531 57.0078ZM106.871 58.3086H102.312V56.4688H106.871C107.754 56.4688 108.469 56.3281 109.016 56.0469C109.562 55.7656 109.961 55.375 110.211 54.875C110.469 54.375 110.598 53.8047 110.598 53.1641C110.598 52.5781 110.469 52.0273 110.211 51.5117C109.961 50.9961 109.562 50.582 109.016 50.2695C108.469 49.9492 107.754 49.7891 106.871 49.7891H102.84V65H100.578V47.9375H106.871C108.16 47.9375 109.25 48.1602 110.141 48.6055C111.031 49.0508 111.707 49.668 112.168 50.457C112.629 51.2383 112.859 52.1328 112.859 53.1406C112.859 54.2344 112.629 55.168 112.168 55.9414C111.707 56.7148 111.031 57.3047 110.141 57.7109C109.25 58.1094 108.16 58.3086 106.871 58.3086ZM127.059 63.1602V65H118.023V63.1602H127.059ZM118.48 47.9375V65H116.219V47.9375H118.48ZM125.863 55.2734V57.1133H118.023V55.2734H125.863ZM126.941 47.9375V49.7891H118.023V47.9375H126.941Z" fill="white"/>
<path d="M117.045 36.8516V38.3066C117.045 38.8991 116.895 39.5241 116.596 40.1816C116.296 40.8457 115.876 41.3991 115.336 41.8418L114.311 41.1289C114.519 40.8424 114.695 40.5495 114.838 40.25C114.981 39.957 115.089 39.651 115.16 39.332C115.238 39.0195 115.277 38.6875 115.277 38.3359V36.8516H117.045Z" fill="white" fill-opacity="0.49"/>
<path d="M82.0449 36.8516V38.3066C82.0449 38.8991 81.8952 39.5241 81.5957 40.1816C81.2962 40.8457 80.8763 41.3991 80.3359 41.8418L79.3105 41.1289C79.5189 40.8424 79.6947 40.5495 79.8379 40.25C79.9811 39.957 80.0885 39.651 80.1602 39.332C80.2383 39.0195 80.2773 38.6875 80.2773 38.3359V36.8516H82.0449Z" fill="white" fill-opacity="0.26"/>
<g opacity="0.51">
<mask id="path-11-inside-1_19_151" fill="white">
<path d="M82.8884 10.5426C82.9103 10.5305 82.9418 10.5359 82.9563 10.5622C82.9611 10.571 82.9684 10.5841 82.962 10.5933L82.3541 13.0859L84.151 12.6898C84.1666 12.687 84.1893 12.6972 84.199 12.7148C84.2062 12.7279 84.2115 12.7478 84.2008 12.7594L81.908 16.7737C81.9017 16.7829 81.8973 16.7853 81.8885 16.7902C81.871 16.7998 81.8375 16.8011 81.823 16.7749C81.8182 16.7661 81.8153 16.7505 81.8193 16.737L82.4252 14.2512L80.6601 14.7154C80.6445 14.7182 80.6198 14.7147 80.6126 14.7016C80.6029 14.6841 80.602 14.6617 80.6103 14.6457L82.8713 10.5634C82.8752 10.5498 82.884 10.545 82.8884 10.5426Z"/>
</mask>
<path d="M82.8884 10.5426C82.9103 10.5305 82.9418 10.5359 82.9563 10.5622C82.9611 10.571 82.9684 10.5841 82.962 10.5933L82.3541 13.0859L84.151 12.6898C84.1666 12.687 84.1893 12.6972 84.199 12.7148C84.2062 12.7279 84.2115 12.7478 84.2008 12.7594L81.908 16.7737C81.9017 16.7829 81.8973 16.7853 81.8885 16.7902C81.871 16.7998 81.8375 16.8011 81.823 16.7749C81.8182 16.7661 81.8153 16.7505 81.8193 16.737L82.4252 14.2512L80.6601 14.7154C80.6445 14.7182 80.6198 14.7147 80.6126 14.7016C80.6029 14.6841 80.602 14.6617 80.6103 14.6457L82.8713 10.5634C82.8752 10.5498 82.884 10.545 82.8884 10.5426Z" fill="#FFE100" fill-opacity="0.95"/>
<path d="M82.962 10.5933L52.5019 -10.411L48.6311 -4.79757L47.0155 1.8269L82.962 10.5933ZM82.3541 13.0859L46.4076 4.31945L32.3414 61.9977L90.3184 49.2186L82.3541 13.0859ZM84.151 12.6898L77.4649 -23.7011L76.8235 -23.5832L76.1867 -23.4429L84.151 12.6898ZM84.2008 12.7594L57.0171 -12.3413L54.1604 -9.24759L52.072 -5.59108L84.2008 12.7594ZM81.908 16.7737L112.368 37.778L113.259 36.4865L114.037 35.1242L81.908 16.7737ZM81.8193 16.737L117.358 27.031L117.579 26.2695L117.767 25.4991L81.8193 16.737ZM82.4252 14.2512L118.373 23.0134L133.081 -37.328L73.015 -21.5322L82.4252 14.2512ZM80.6601 14.7154L87.3466 51.1062L88.7199 50.8538L90.0702 50.4987L80.6601 14.7154ZM80.6103 14.6457L48.2429 -3.2805L48.0058 -2.8523L47.78 -2.41797L80.6103 14.6457ZM82.8713 10.5634L115.239 28.4896L117.253 24.8518L118.41 20.8576L82.8713 10.5634ZM100.739 42.9515C85.0046 51.6183 61.5317 48.3557 50.5473 28.4132L115.365 -7.28878C104.352 -27.2838 80.8159 -30.5573 65.0374 -21.8664L100.739 42.9515ZM50.5473 28.4132C50.9053 29.0632 48.7873 25.5285 47.4537 20.9731C46.1565 16.5422 43.2304 3.03442 52.5019 -10.411L113.422 31.5976C122.7 18.143 119.773 4.62412 118.473 0.182166C117.699 -2.46148 116.789 -4.46185 116.285 -5.50622C116.01 -6.07769 115.77 -6.53575 115.617 -6.82385C115.539 -6.97104 115.474 -7.09067 115.432 -7.16715C115.411 -7.20585 115.394 -7.23734 115.383 -7.2572C115.377 -7.26727 115.373 -7.27545 115.37 -7.28057C115.368 -7.28317 115.367 -7.28528 115.366 -7.28661C115.366 -7.28728 115.366 -7.28783 115.366 -7.28818C115.366 -7.28832 115.365 -7.28852 115.365 -7.2886C115.365 -7.28868 115.365 -7.28876 115.365 -7.28878L50.5473 28.4132ZM47.0155 1.8269L46.4076 4.31945L118.301 21.8523L118.908 19.3598L47.0155 1.8269ZM90.3184 49.2186L92.1153 48.8225L76.1867 -23.4429L74.3898 -23.0468L90.3184 49.2186ZM90.8372 49.0807C80.8415 50.9172 72.6333 48.2784 67.6918 45.8191C62.3559 43.1635 56.1007 38.3919 51.79 30.5658L116.608 -5.13624C112.288 -12.9799 106.016 -17.7654 100.663 -20.4298C95.7035 -22.8979 87.4761 -25.5404 77.4649 -23.7011L90.8372 49.0807ZM51.79 30.5658C50.1093 27.5144 48.0865 22.815 47.4249 16.7506C46.7763 10.8057 47.085 -1.58506 57.0171 -12.3413L111.384 37.8602C121.327 27.0923 121.639 14.6858 120.988 8.72479C120.325 2.64418 118.296 -2.07176 116.608 -5.13624L51.79 30.5658ZM52.072 -5.59108L49.7792 -1.57682L114.037 35.1242L116.33 31.11L52.072 -5.59108ZM51.4479 -4.23055C52.9714 -6.44004 55.3805 -9.4196 58.9631 -12.2498C61.816 -14.5035 64.6798 -15.9726 64.0375 -15.6188L99.7395 49.1991C99.7395 49.1991 99.7397 49.199 99.7399 49.1989C99.7401 49.1988 99.7404 49.1987 99.7407 49.1985C99.7414 49.1981 99.7426 49.1975 99.7439 49.1967C99.7467 49.1952 99.7511 49.1927 99.7566 49.1897C99.7673 49.1838 99.7856 49.1737 99.8083 49.1611C99.8518 49.1371 99.9295 49.094 100.026 49.0396C100.211 48.9359 100.554 48.7411 100.978 48.4858C101.851 47.9599 103.243 47.075 104.835 45.817C108.424 42.982 110.838 39.9967 112.368 37.778L51.4479 -4.23055ZM64.0375 -15.6188C71.0411 -19.4765 79.1043 -20.9575 87.0193 -19.8418C96.0634 -18.5669 107.515 -13.2713 114.232 -1.07614L49.414 34.6259C56.1457 46.8473 67.6211 52.1554 76.69 53.4338C84.6297 54.553 92.7184 53.0664 99.7395 49.1991L64.0375 -15.6188ZM114.232 -1.07614C116.9 3.76728 118.073 8.45308 118.539 12.2197C119.025 16.1576 119.013 21.3203 117.358 27.031L46.2801 6.44292C43.3675 16.4984 44.9937 26.6006 49.414 34.6259L114.232 -1.07614ZM117.767 25.4991L118.373 23.0134L46.4776 5.48902L45.8717 7.97478L117.767 25.4991ZM73.015 -21.5322L71.25 -21.068L90.0702 50.4987L91.8353 50.0346L73.015 -21.5322ZM73.9736 -21.6754C79.127 -22.6223 84.3206 -22.445 89.2252 -21.2741C91.8401 -20.6498 95.542 -19.4654 99.5347 -17.0907C103.519 -14.7208 109.024 -10.4073 113.022 -3.1494L48.2036 32.5526C55.8207 46.3818 68.6498 49.8934 72.0413 50.7031C76.9639 51.8783 82.1777 52.0559 87.3466 51.1062L73.9736 -21.6754ZM113.022 -3.1494C115.922 2.11681 117.359 7.75524 117.575 13.2005C117.789 18.5667 116.859 25.133 113.441 31.7095L47.78 -2.41797C41.3692 9.91639 42.9937 23.0939 48.2036 32.5526L113.022 -3.1494ZM112.978 32.572L115.239 28.4896L50.5039 -7.36288L48.2429 -3.2805L112.978 32.572ZM118.41 20.8576C116.582 27.1703 113.195 32.5899 108.947 36.8068C106.953 38.7865 105.028 40.246 103.476 41.2856C102.002 42.2731 100.732 42.9556 100.739 42.9515L65.0374 -21.8664C62.5148 -20.477 51.5277 -14.2152 47.3322 0.269197L118.41 20.8576Z" fill="#FFFF34" mask="url(#path-11-inside-1_19_151)"/>
</g>
<mask id="mask0_19_151" style="mask-type:alpha" maskUnits="userSpaceOnUse" x="40" y="24" width="88" height="42">
<path d="M78.1172 32.9297V34.0078C78.1172 35.2891 77.957 36.4375 77.6367 37.4531C77.3164 38.4688 76.8555 39.332 76.2539 40.043C75.6523 40.7539 74.9297 41.2969 74.0859 41.6719C73.25 42.0469 72.3125 42.2344 71.2734 42.2344C70.2656 42.2344 69.3398 42.0469 68.4961 41.6719C67.6602 41.2969 66.9336 40.7539 66.3164 40.043C65.707 39.332 65.2344 38.4688 64.8984 37.4531C64.5625 36.4375 64.3945 35.2891 64.3945 34.0078V32.9297C64.3945 31.6484 64.5586 30.5039 64.8867 29.4961C65.2227 28.4805 65.6953 27.6172 66.3047 26.9062C66.9141 26.1875 67.6367 25.6406 68.4727 25.2656C69.3164 24.8906 70.2422 24.7031 71.25 24.7031C72.2891 24.7031 73.2266 24.8906 74.0625 25.2656C74.9062 25.6406 75.6289 26.1875 76.2305 26.9062C76.8398 27.6172 77.3047 28.4805 77.625 29.4961C77.9531 30.5039 78.1172 31.6484 78.1172 32.9297ZM75.8789 34.0078V32.9062C75.8789 31.8906 75.7734 30.9922 75.5625 30.2109C75.3594 29.4297 75.0586 28.7734 74.6602 28.2422C74.2617 27.7109 73.7734 27.3086 73.1953 27.0352C72.625 26.7617 71.9766 26.625 71.25 26.625C70.5469 26.625 69.9102 26.7617 69.3398 27.0352C68.7773 27.3086 68.293 27.7109 67.8867 28.2422C67.4883 28.7734 67.1797 29.4297 66.9609 30.2109C66.7422 30.9922 66.6328 31.8906 66.6328 32.9062V34.0078C66.6328 35.0312 66.7422 35.9375 66.9609 36.7266C67.1797 37.5078 67.4922 38.168 67.8984 38.707C68.3125 39.2383 68.8008 39.6406 69.3633 39.9141C69.9336 40.1875 70.5703 40.3242 71.2734 40.3242C72.0078 40.3242 72.6602 40.1875 73.2305 39.9141C73.8008 39.6406 74.2812 39.2383 74.6719 38.707C75.0703 38.168 75.3711 37.5078 75.5742 36.7266C75.7773 35.9375 75.8789 35.0312 75.8789 34.0078Z" fill="#5896E8"/>
<path d="M101.594 32.9297V34.0078C101.594 35.2891 101.434 36.4375 101.113 37.4531C100.793 38.4688 100.332 39.332 99.7305 40.043C99.1289 40.7539 98.4062 41.2969 97.5625 41.6719C96.7266 42.0469 95.7891 42.2344 94.75 42.2344C93.7422 42.2344 92.8164 42.0469 91.9727 41.6719C91.1367 41.2969 90.4102 40.7539 89.793 40.043C89.1836 39.332 88.7109 38.4688 88.375 37.4531C88.0391 36.4375 87.8711 35.2891 87.8711 34.0078V32.9297C87.8711 31.6484 88.0352 30.5039 88.3633 29.4961C88.6992 28.4805 89.1719 27.6172 89.7812 26.9062C90.3906 26.1875 91.1133 25.6406 91.9492 25.2656C92.793 24.8906 93.7188 24.7031 94.7266 24.7031C95.7656 24.7031 96.7031 24.8906 97.5391 25.2656C98.3828 25.6406 99.1055 26.1875 99.707 26.9062C100.316 27.6172 100.781 28.4805 101.102 29.4961C101.43 30.5039 101.594 31.6484 101.594 32.9297ZM99.3555 34.0078V32.9062C99.3555 31.8906 99.25 30.9922 99.0391 30.2109C98.8359 29.4297 98.5352 28.7734 98.1367 28.2422C97.7383 27.7109 97.25 27.3086 96.6719 27.0352C96.1016 26.7617 95.4531 26.625 94.7266 26.625C94.0234 26.625 93.3867 26.7617 92.8164 27.0352C92.2539 27.3086 91.7695 27.7109 91.3633 28.2422C90.9648 28.7734 90.6562 29.4297 90.4375 30.2109C90.2188 30.9922 90.1094 31.8906 90.1094 32.9062V34.0078C90.1094 35.0312 90.2188 35.9375 90.4375 36.7266C90.6562 37.5078 90.9688 38.168 91.375 38.707C91.7891 39.2383 92.2773 39.6406 92.8398 39.9141C93.4102 40.1875 94.0469 40.3242 94.75 40.3242C95.4844 40.3242 96.1367 40.1875 96.707 39.9141C97.2773 39.6406 97.7578 39.2383 98.1484 38.707C98.5469 38.168 98.8477 37.5078 99.0508 36.7266C99.2539 35.9375 99.3555 35.0312 99.3555 34.0078Z" fill="#FB7A7A"/>
<path d="M42.3633 47.9375V65H40.1016V47.9375H42.3633ZM49.5117 55.6133V57.4648H41.8711V55.6133H49.5117ZM50.6719 47.9375V49.7891H41.8711V47.9375H50.6719ZM67.0039 55.9297V57.0078C67.0039 58.2891 66.8438 59.4375 66.5234 60.4531C66.2031 61.4688 65.7422 62.332 65.1406 63.043C64.5391 63.7539 63.8164 64.2969 62.9727 64.6719C62.1367 65.0469 61.1992 65.2344 60.1602 65.2344C59.1523 65.2344 58.2266 65.0469 57.3828 64.6719C56.5469 64.2969 55.8203 63.7539 55.2031 63.043C54.5938 62.332 54.1211 61.4688 53.7852 60.4531C53.4492 59.4375 53.2812 58.2891 53.2812 57.0078V55.9297C53.2812 54.6484 53.4453 53.5039 53.7734 52.4961C54.1094 51.4805 54.582 50.6172 55.1914 49.9062C55.8008 49.1875 56.5234 48.6406 57.3594 48.2656C58.2031 47.8906 59.1289 47.7031 60.1367 47.7031C61.1758 47.7031 62.1133 47.8906 62.9492 48.2656C63.793 48.6406 64.5156 49.1875 65.1172 49.9062C65.7266 50.6172 66.1914 51.4805 66.5117 52.4961C66.8398 53.5039 67.0039 54.6484 67.0039 55.9297ZM64.7656 57.0078V55.9062C64.7656 54.8906 64.6602 53.9922 64.4492 53.2109C64.2461 52.4297 63.9453 51.7734 63.5469 51.2422C63.1484 50.7109 62.6602 50.3086 62.082 50.0352C61.5117 49.7617 60.8633 49.625 60.1367 49.625C59.4336 49.625 58.7969 49.7617 58.2266 50.0352C57.6641 50.3086 57.1797 50.7109 56.7734 51.2422C56.375 51.7734 56.0664 52.4297 55.8477 53.2109C55.6289 53.9922 55.5195 54.8906 55.5195 55.9062V57.0078C55.5195 58.0312 55.6289 58.9375 55.8477 59.7266C56.0664 60.5078 56.3789 61.168 56.7852 61.707C57.1992 62.2383 57.6875 62.6406 58.25 62.9141C58.8203 63.1875 59.457 63.3242 60.1602 63.3242C60.8945 63.3242 61.5469 63.1875 62.1172 62.9141C62.6875 62.6406 63.168 62.2383 63.5586 61.707C63.957 61.168 64.2578 60.5078 64.4609 59.7266C64.6641 58.9375 64.7656 58.0312 64.7656 57.0078ZM81.2383 63.1602V65H72.707V63.1602H81.2383ZM73.1523 47.9375V65H70.8906V47.9375H73.1523ZM96.6914 55.9297V57.0078C96.6914 58.2891 96.5312 59.4375 96.2109 60.4531C95.8906 61.4688 95.4297 62.332 94.8281 63.043C94.2266 63.7539 93.5039 64.2969 92.6602 64.6719C91.8242 65.0469 90.8867 65.2344 89.8477 65.2344C88.8398 65.2344 87.9141 65.0469 87.0703 64.6719C86.2344 64.2969 85.5078 63.7539 84.8906 63.043C84.2812 62.332 83.8086 61.4688 83.4727 60.4531C83.1367 59.4375 82.9688 58.2891 82.9688 57.0078V55.9297C82.9688 54.6484 83.1328 53.5039 83.4609 52.4961C83.7969 51.4805 84.2695 50.6172 84.8789 49.9062C85.4883 49.1875 86.2109 48.6406 87.0469 48.2656C87.8906 47.8906 88.8164 47.7031 89.8242 47.7031C90.8633 47.7031 91.8008 47.8906 92.6367 48.2656C93.4805 48.6406 94.2031 49.1875 94.8047 49.9062C95.4141 50.6172 95.8789 51.4805 96.1992 52.4961C96.5273 53.5039 96.6914 54.6484 96.6914 55.9297ZM94.4531 57.0078V55.9062C94.4531 54.8906 94.3477 53.9922 94.1367 53.2109C93.9336 52.4297 93.6328 51.7734 93.2344 51.2422C92.8359 50.7109 92.3477 50.3086 91.7695 50.0352C91.1992 49.7617 90.5508 49.625 89.8242 49.625C89.1211 49.625 88.4844 49.7617 87.9141 50.0352C87.3516 50.3086 86.8672 50.7109 86.4609 51.2422C86.0625 51.7734 85.7539 52.4297 85.5352 53.2109C85.3164 53.9922 85.207 54.8906 85.207 55.9062V57.0078C85.207 58.0312 85.3164 58.9375 85.5352 59.7266C85.7539 60.5078 86.0664 61.168 86.4727 61.707C86.8867 62.2383 87.375 62.6406 87.9375 62.9141C88.5078 63.1875 89.1445 63.3242 89.8477 63.3242C90.582 63.3242 91.2344 63.1875 91.8047 62.9141C92.375 62.6406 92.8555 62.2383 93.2461 61.707C93.6445 61.168 93.9453 60.5078 94.1484 59.7266C94.3516 58.9375 94.4531 58.0312 94.4531 57.0078ZM106.871 58.3086H102.312V56.4688H106.871C107.754 56.4688 108.469 56.3281 109.016 56.0469C109.562 55.7656 109.961 55.375 110.211 54.875C110.469 54.375 110.598 53.8047 110.598 53.1641C110.598 52.5781 110.469 52.0273 110.211 51.5117C109.961 50.9961 109.562 50.582 109.016 50.2695C108.469 49.9492 107.754 49.7891 106.871 49.7891H102.84V65H100.578V47.9375H106.871C108.16 47.9375 109.25 48.1602 110.141 48.6055C111.031 49.0508 111.707 49.668 112.168 50.457C112.629 51.2383 112.859 52.1328 112.859 53.1406C112.859 54.2344 112.629 55.168 112.168 55.9414C111.707 56.7148 111.031 57.3047 110.141 57.7109C109.25 58.1094 108.16 58.3086 106.871 58.3086ZM127.059 63.1602V65H118.023V63.1602H127.059ZM118.48 47.9375V65H116.219V47.9375H118.48ZM125.863 55.2734V57.1133H118.023V55.2734H125.863ZM126.941 47.9375V49.7891H118.023V47.9375H126.941Z" fill="white"/>
</mask>
<g mask="url(#mask0_19_151)">
<path d="M71.3398 51.8311L62.4336 28.6719H65.0117L73.918 51.8311H71.3398Z" fill="white" fill-opacity="0.58"/>
<path d="M71.3398 52.8311L62.4336 29.6719H65.0117L73.918 52.8311H71.3398Z" fill="white" fill-opacity="0.24"/>
<path d="M95.3398 48.8311L86.4336 25.6719H89.0117L97.918 48.8311H95.3398Z" fill="white" fill-opacity="0.24"/>
<path d="M96.3398 47.8311L87.4336 24.6719H90.0117L98.918 47.8311H96.3398Z" fill="white" fill-opacity="0.24"/>
</g>
</svg>
